# xmcd CD database file
#
# Track frame offsets:
#	150
#	30875
#	60640
#	96840
#	159005
#	196880
#	224587
#	243690
#	263825
#	285592
#	301050
#	317950
#	331820
#
# Disc length: 4732 seconds
#
# Revision: 0
# Processed by: cddbd v1.5.2PL0 Copyright (c) Steve Scherf et al.
# Submitted via: CDex 1.51
#
DISCID=ae127a0d
DTITLE=Duke Ellington - Ellington Uptown
DYEAR=1953
DGENRE=Jazz
TTITLE0=Skin Deep
TTITLE1=The Mooche
TTITLE2=Take The 'A' Train
TTITLE3=A Tone Parallel To Harlem (Harlem Suite)
TTITLE4=Perdido
TTITLE5=The Controversial Suite: Before My Time
TTITLE6=The Controversial Suite: Later
TTITLE7=The Liberian Suite: I Like The Sunrise
TTITLE8=The Liberian Suite: Dance No. 1
TTITLE9=The Liberian Suite: Dance No. 2
TTITLE10=The Liberian Suite: Dance No. 3
TTITLE11=The Liberian Suite: Dance No. 4
TTITLE12=The Liberian Suite: Dance No. 5
EXTD=YEAR: 1953
EXTT0=
EXTT1=
EXTT2=
EXTT3=
EXTT4=
EXTT5=
EXTT6=
EXTT7=
EXTT8=
EXTT9=
EXTT10=
EXTT11=
EXTT12=
PLAYORDER=
